# Blender 4.4.0
# www.blender.org
o Asteroid0
v -0.024382 -1.074703 -0.020558
v 0.742330 -0.501975 0.650355
v -0.456894 -0.564036 0.874833
v -1.013383 -0.494596 -0.000310
v -0.252630 -0.527342 -0.896595
v 0.710294 -0.542289 -0.630118
v 0.220569 0.425165 0.955539
v -0.937051 0.566924 0.572371
v -0.723607 0.447220 -0.525725
v 0.235785 0.399441 -0.995971
v 0.889915 0.432635 0.042834
v -0.042072 1.008522 -0.007754
v -0.255570 -1.004444 0.530985
v 0.413819 -0.927729 0.292014
v 0.189004 -0.598568 0.875197
v 0.865395 -0.634693 0.002674
v 0.386822 -0.941287 -0.384145
v -0.587489 -0.922344 0.010126
v -0.860520 -0.647770 0.518920
v -0.166664 -0.905173 -0.544066
v -0.713629 -0.569367 -0.521033
v 0.256683 -0.603044 -0.908452
v 1.001277 -0.051745 0.490373
v 0.968833 -0.055936 -0.332638
v -0.100163 -0.033317 1.083000
v 0.575554 -0.056148 0.999607
v -1.048511 0.021302 0.312440
v -0.753082 0.015845 0.856081
v -0.577681 -0.034371 -0.828641
v -0.990527 -0.010192 -0.310811
v 0.565639 -0.084313 -1.014954
v -0.009321 -0.067270 -1.110933
v 0.693002 0.503956 0.591215
v -0.489281 0.586657 0.929043
v -0.934096 0.583112 -0.006563
v -0.278960 0.520034 -0.839694
v 0.657277 0.486114 -0.581210
v 0.092325 0.862822 0.522498
v 0.661545 0.947836 -0.118039
v -0.625510 0.940901 0.326216
v -0.451361 0.862528 -0.315756
v 0.136233 0.839460 -0.527210
vn 0.0077 -0.9982 -0.0601
vn 0.6543 -0.5324 0.5371
vn -0.3128 -0.4462 0.8385
vn -0.9103 -0.3953 -0.1229
vn -0.3402 -0.4720 -0.8133
vn 0.7200 -0.4860 -0.4953
vn 0.2430 0.4831 0.8412
vn -0.8175 0.4091 0.4054
vn -0.6966 0.4218 -0.5804
vn 0.1981 0.4981 -0.8442
vn 0.9313 0.3642 -0.0088
vn -0.0144 0.9990 -0.0427
vn -0.1306 -0.8902 0.4365
vn 0.4159 -0.8682 0.2707
vn 0.1923 -0.5699 0.7989
vn 0.8237 -0.5669 -0.0128
vn 0.3659 -0.8779 -0.3088
vn -0.5058 -0.8551 -0.1139
vn -0.7430 -0.5276 0.4117
vn -0.2022 -0.8460 -0.4933
vn -0.6744 -0.4958 -0.5472
vn 0.1904 -0.5867 -0.7871
vn 0.9427 0.0170 0.3333
vn 0.9580 0.0267 -0.2856
vn -0.0665 -0.0534 0.9964
vn 0.4817 -0.0150 0.8762
vn -0.9831 -0.0009 0.1830
vn -0.6355 -0.0554 0.7701
vn -0.6201 0.0100 -0.7845
vn -0.9177 0.0294 -0.3962
vn 0.5628 -0.0173 -0.8264
vn -0.1418 -0.0275 -0.9895
vn 0.6483 0.5564 0.5197
vn -0.2603 0.5069 0.8218
vn -0.8518 0.4814 -0.2067
vn -0.3339 0.5395 -0.7729
vn 0.6944 0.4801 -0.5360
vn 0.1762 0.8600 0.4788
vn 0.5802 0.8065 -0.1136
vn -0.4004 0.9015 0.1645
vn -0.3791 0.8324 -0.4042
vn 0.0909 0.8370 -0.5397
vt 0.000069 0.818137
vt 0.078788 0.772689
vt 0.078788 0.863585
vt 0.157508 0.727241
vt 0.078788 0.681792
vt 0.157508 0.636344
vt 0.000069 0.090965
vt 0.078788 0.045517
vt 0.078788 0.136413
vt 0.000069 0.272758
vt 0.078788 0.227310
vt 0.078788 0.318206
vt 0.000069 0.454551
vt 0.078788 0.409103
vt 0.078788 0.499999
vt 0.236227 0.681792
vt 0.157508 0.909034
vt 0.157508 0.818137
vt 0.236227 0.863585
vt 0.157508 0.181862
vt 0.157508 0.090965
vt 0.236227 0.136413
vt 0.157508 0.363655
vt 0.157508 0.272758
vt 0.236227 0.318206
vt 0.157508 0.545448
vt 0.157508 0.454551
vt 0.236227 0.499999
vt 0.236227 0.772689
vt 0.236227 0.954482
vt 0.236227 0.227310
vt 0.236227 0.409103
vt 0.236227 0.590896
vt 0.314946 0.818137
vt 0.314946 0.727241
vt 0.393666 0.772689
vt 0.314946 0.999931
vt 0.314946 0.909034
vt 0.393666 0.954482
vt 0.314946 0.272758
vt 0.314946 0.181862
vt 0.393666 0.227310
vt 0.314946 0.454551
vt 0.314946 0.363655
vt 0.393666 0.409103
vt 0.314946 0.636344
vt 0.314946 0.545448
vt 0.393666 0.590896
vt 0.393666 0.499999
vt 0.472386 0.545448
vt 0.393666 0.318206
vt 0.472386 0.363655
vt 0.393666 0.136413
vt 0.472386 0.181862
vt 0.314946 0.090965
vt 0.393666 0.863585
vt 0.472386 0.909034
vt 0.393666 0.681792
vt 0.472386 0.727241
vt 0.236227 0.045517
vt 0.157508 0.000069
vt 0.078788 0.590896
vt 0.000069 0.636344
s 1
f 1/1/1 14/2/14 13/3/13
f 2/4/2 14/5/14 16/6/16
f 1/7/1 13/8/13 18/9/18
f 1/10/1 18/11/18 20/12/20
f 1/13/1 20/14/20 17/15/17
f 2/4/2 16/6/16 23/16/23
f 3/17/3 15/18/15 25/19/25
f 4/20/4 19/21/19 27/22/27
f 5/23/5 21/24/21 29/25/29
f 6/26/6 22/27/22 31/28/31
f 2/4/2 23/16/23 26/29/26
f 3/17/3 25/19/25 28/30/28
f 4/20/4 27/22/27 30/31/30
f 5/23/5 29/25/29 32/32/32
f 6/26/6 31/28/31 24/33/24
f 7/34/7 33/35/33 38/36/38
f 8/37/8 34/38/34 40/39/40
f 9/40/9 35/41/35 41/42/41
f 10/43/10 36/44/36 42/45/42
f 11/46/11 37/47/37 39/48/39
f 39/48/39 42/49/42 12/50/12
f 39/48/39 37/47/37 42/49/42
f 37/47/37 10/43/10 42/49/42
f 42/45/42 41/51/41 12/52/12
f 42/45/42 36/44/36 41/51/41
f 36/44/36 9/40/9 41/51/41
f 41/42/41 40/53/40 12/54/12
f 41/42/41 35/41/35 40/53/40
f 35/41/35 8/55/8 40/53/40
f 40/39/40 38/56/38 12/57/12
f 40/39/40 34/38/34 38/56/38
f 34/38/34 7/34/7 38/56/38
f 38/36/38 39/58/39 12/59/12
f 38/36/38 33/35/33 39/58/39
f 33/35/33 11/46/11 39/58/39
f 24/33/24 37/47/37 11/46/11
f 24/33/24 31/28/31 37/47/37
f 31/28/31 10/43/10 37/47/37
f 32/32/32 36/44/36 10/43/10
f 32/32/32 29/25/29 36/44/36
f 29/25/29 9/40/9 36/44/36
f 30/31/30 35/41/35 9/40/9
f 30/31/30 27/22/27 35/41/35
f 27/22/27 8/55/8 35/41/35
f 28/30/28 34/38/34 8/37/8
f 28/30/28 25/19/25 34/38/34
f 25/19/25 7/34/7 34/38/34
f 26/29/26 33/35/33 7/34/7
f 26/29/26 23/16/23 33/35/33
f 23/16/23 11/46/11 33/35/33
f 31/28/31 32/32/32 10/43/10
f 31/28/31 22/27/22 32/32/32
f 22/27/22 5/23/5 32/32/32
f 29/25/29 30/31/30 9/40/9
f 29/25/29 21/24/21 30/31/30
f 21/24/21 4/20/4 30/31/30
f 27/22/27 28/60/28 8/55/8
f 27/22/27 19/21/19 28/60/28
f 19/21/19 3/61/3 28/60/28
f 25/19/25 26/29/26 7/34/7
f 25/19/25 15/18/15 26/29/26
f 15/18/15 2/4/2 26/29/26
f 23/16/23 24/33/24 11/46/11
f 23/16/23 16/6/16 24/33/24
f 16/6/16 6/26/6 24/33/24
f 17/15/17 22/27/22 6/26/6
f 17/15/17 20/14/20 22/27/22
f 20/14/20 5/23/5 22/27/22
f 20/12/20 21/24/21 5/23/5
f 20/12/20 18/11/18 21/24/21
f 18/11/18 4/20/4 21/24/21
f 18/9/18 19/21/19 4/20/4
f 18/9/18 13/8/13 19/21/19
f 13/8/13 3/61/3 19/21/19
f 16/6/16 17/62/17 6/26/6
f 16/6/16 14/5/14 17/62/17
f 14/5/14 1/63/1 17/62/17
f 13/3/13 15/18/15 3/17/3
f 13/3/13 14/2/14 15/18/15
f 14/2/14 2/4/2 15/18/15
